<?xml version="1.0" encoding="UTF-8"?><svg id="ML_Black_no_tagline" xmlns="http://www.w3.org/2000/svg" viewBox="0 0 395.48 395.48"><path d="m103.94,301.68L0,197.74l103.94-103.94,93.8,93.8,83.66-83.65L197.74,20.29l-60.2,60.2,60.2,60.21,36.76-36.76-36.76-36.76-13.31,13.31,18.38,18.38c2.8,2.8,2.8,7.34,0,10.14s-7.34,2.8-10.14,0l-28.52-28.52,33.59-33.59,57.04,57.04-57.04,57.04-80.49-80.49L197.74,0l103.94,103.94-103.94,103.94-93.8-93.8L20.29,197.74l83.65,83.66,60.21-60.21-60.21-60.2-36.76,36.76,36.76,36.76,13.31-13.31-18.38-18.38c-2.8-2.8-2.8-7.34,0-10.14,2.8-2.8,7.34-2.8,10.14,0l28.52,28.52-33.59,33.59-57.04-57.04,57.04-57.04,80.49,80.49-80.49,80.49Z"/><path d="m197.74,395.48l-103.94-103.94,103.94-103.94,93.8,93.8,83.65-83.66-83.65-83.65-60.21,60.21,60.21,60.21,36.76-36.76-36.76-36.76-13.31,13.31,18.38,18.38c2.8,2.8,2.8,7.34,0,10.14-2.8,2.8-7.34,2.8-10.14,0l-28.52-28.52,33.59-33.59,57.04,57.04-57.04,57.04-80.49-80.49,80.49-80.49,103.94,103.94-103.94,103.94-93.8-93.8-83.65,83.66,83.65,83.66,60.21-60.2-60.21-60.21-36.76,36.76,36.76,36.76,13.31-13.31-18.38-18.38c-2.8-2.8-2.8-7.34,0-10.14,2.8-2.8,7.34-2.8,10.14,0l28.52,28.52-33.59,33.59-57.04-57.04,57.04-57.04,80.49,80.49-80.49,80.49Z"/></svg>