<?xml version="1.0" encoding="UTF-8"?><svg id="ML_Black_no_tagline" xmlns="http://www.w3.org/2000/svg" viewBox="0 0 1920 395.48"><g><path d="m103.94,301.68L0,197.74l103.94-103.94,93.8,93.8,83.66-83.65L197.74,20.29l-60.2,60.2,60.2,60.21,36.76-36.76-36.76-36.76-13.31,13.31,18.38,18.38c2.8,2.8,2.8,7.34,0,10.14s-7.34,2.8-10.14,0l-28.52-28.52,33.59-33.59,57.04,57.04-57.04,57.04-80.49-80.49L197.74,0l103.94,103.94-103.94,103.94-93.8-93.8L20.29,197.74l83.65,83.66,60.21-60.21-60.21-60.2-36.76,36.76,36.76,36.76,13.31-13.31-18.38-18.38c-2.8-2.8-2.8-7.34,0-10.14,2.8-2.8,7.34-2.8,10.14,0l28.52,28.52-33.59,33.59-57.04-57.04,57.04-57.04,80.49,80.49-80.49,80.49Z"/><path d="m197.74,395.48l-103.94-103.94,103.94-103.94,93.8,93.8,83.65-83.66-83.65-83.65-60.21,60.21,60.21,60.21,36.76-36.76-36.76-36.76-13.31,13.31,18.38,18.38c2.8,2.8,2.8,7.34,0,10.14-2.8,2.8-7.34,2.8-10.14,0l-28.52-28.52,33.59-33.59,57.04,57.04-57.04,57.04-80.49-80.49,80.49-80.49,103.94,103.94-103.94,103.94-93.8-93.8-83.65,83.66,83.65,83.66,60.21-60.2-60.21-60.21-36.76,36.76,36.76,36.76,13.31-13.31-18.38-18.38c-2.8-2.8-2.8-7.34,0-10.14,2.8-2.8,7.34-2.8,10.14,0l28.52,28.52-33.59,33.59-57.04-57.04,57.04-57.04,80.49,80.49-80.49,80.49Z"/></g><g><g><path d="m474.6,301.6h25.64V95.6h-24.78c-1.15,0-1.73-.29-1.73-1.44s.58-1.44,1.73-1.44h60.79c2.31,0,3.46.58,4.03,2.88l50.42,156.16h1.15l50.42-156.16c.58-2.3,1.44-2.88,3.75-2.88h58.49c1.15,0,1.73.29,1.73,1.44s-.58,1.44-1.73,1.44h-23.63v206h25.64c1.15,0,1.73.29,1.73,1.44s-.58,1.44-1.73,1.44h-87.01c-1.15,0-1.73-.29-1.73-1.44s.58-1.44,1.73-1.44h25.93V99.35h-1.44l-66.55,205.13c-.58,2.31-1.15,3.46-2.59,3.46-1.73,0-2.3-1.15-2.88-3.46l-67.13-207.73h-1.15v204.85h30.54c1.15,0,1.73.29,1.73,1.44s-.58,1.44-1.73,1.44h-59.64c-1.15,0-1.73-.29-1.73-1.44s.58-1.44,1.73-1.44Z"/><path d="m787.19,177.14c32.84,0,51.28,27.37,51.28,55.61,0,1.73-.86,2.88-2.59,2.88h-78.94v6.92c0,32.27,4.03,45.23,12.1,53.3,5.18,5.19,11.81,8.07,21.61,8.07,18.73,0,36.01-12.97,43.22-29.1.29-.86,2.88.58,2.59,1.44-7.78,16.71-27.08,31.69-49.27,31.69-33.71,0-61.08-27.66-61.08-65.4s28.81-65.4,61.08-65.4Zm-18.73,9.51c-8.07,8.07-11.81,24.2-11.81,46.1h50.99c2.59,0,2.88-.29,2.88-3.17,0-22.76-3.46-37.17-10.37-44.08-4.03-4.03-8.93-5.76-14.12-5.76-7.2,0-12.1,1.44-17.57,6.91Z"/><path d="m944.21,217.76c-7.2,0-12.1-4.9-12.1-11.24,0-11.81,7.49-12.68,7.49-20.17,0-3.17-2.59-5.19-7.78-5.19-12.68,0-25.35,14.69-27.95,40.34v80.09h21.9c1.15,0,1.73.29,1.73,1.44s-.58,1.44-1.73,1.44h-70.59c-1.15,0-1.73-.29-1.73-1.44s.58-1.44,1.73-1.44h20.17v-118.13h-18.44c-1.15,0-1.73-.29-1.73-1.44s.58-1.44,1.73-1.44h43.22c2.31,0,3.17.58,3.17,2.88v4.9c0,6.34-.58,15.56-.58,21.32l.86.29c2.3-19.01,16.71-32.84,31.98-32.84s25.07,9.22,25.07,21.9c0,11.24-8.35,18.73-16.42,18.73Z"/><path d="m1022.57,235.62c10.08,0,19.01,2.02,24.78,4.32v-29.68c0-21.9-10.37-30.25-24.49-30.25s-21.9,5.47-21.9,13.25c0,7.2,5.47,8.64,5.47,18.44,0,6.91-5.76,12.68-12.97,12.68-8.07,0-13.54-6.34-13.54-15.85,0-12.39,16.71-31.4,42.93-31.4,35.15,0,53.01,16.71,53.01,45.52v67.71c0,9.22,3.17,12.96,8.36,12.96,4.61,0,8.07-1.73,11.81-4.32,1.15-.86,2.59,1.44,1.44,2.31-4.9,4.04-12.96,6.63-21.32,6.63-13.54,0-23.91-8.07-26.51-21.32h-1.15c-7.2,16.42-19.01,21.32-32.27,21.32-27.08,0-41.78-14.69-41.78-36.01s17.58-36.3,48.11-36.3Zm3.46,67.13c10.66,0,18.73-9.51,21.32-22.47v-37.45c-4.9-2.59-12.68-4.32-20.17-4.32-14.12,0-22.76,9.51-22.76,33.42,0,19.59,7.78,30.83,21.61,30.83Z"/><path d="m1107.27,301.6h21.61V90.42h-18.44c-1.15,0-1.73-.29-1.73-1.44s.58-1.44,1.73-1.44h43.79c2.3,0,3.17.58,3.17,2.88v142.04l55.6-48.98h-25.35c-1.15,0-1.73-.29-1.73-1.44s.58-1.44,1.73-1.44h47.54c1.15,0,1.73.29,1.73,1.44s-.58,1.44-1.73,1.44h-18.15l-38.61,34.57,60.79,83.55h14.98c1.15,0,1.73.29,1.73,1.44s-.58,1.44-1.73,1.44h-63.96c-1.15,0-1.73-.29-1.73-1.44s.58-1.44,1.73-1.44h16.42l-37.74-51.86c-3.46-4.61-8.93-12.39-10.66-15.56h-1.15c.29,4.32.29,14.12.29,20.17v47.25h16.13c1.15,0,1.73.29,1.73,1.44s-.58,1.44-1.73,1.44h-66.26c-1.15,0-1.73-.29-1.73-1.44s.58-1.44,1.73-1.44Z"/><path d="m1346.68,301.6h24.49V95.6h-23.91c-1.15,0-1.73-.29-1.73-1.44s.58-1.44,1.73-1.44h91.04c1.15,0,1.73.29,1.73,1.44s-.58,1.44-1.73,1.44h-31.69v206h27.95c44.66,0,64.82-27.66,67.7-69.43,0-1.44.29-2.02,1.44-2.02s1.44.58,1.44,2.02v69.43c0,2.31-.86,2.88-3.17,2.88h-155.29c-1.15,0-1.73-.29-1.73-1.44s.58-1.44,1.73-1.44Z"/><path d="m1578.89,235.62c10.08,0,19.02,2.02,24.78,4.32v-29.68c0-21.9-10.37-30.25-24.49-30.25s-21.9,5.47-21.9,13.25c0,7.2,5.47,8.64,5.47,18.44,0,6.91-5.76,12.68-12.97,12.68-8.07,0-13.54-6.34-13.54-15.85,0-12.39,16.71-31.4,42.93-31.4,35.15,0,53.01,16.71,53.01,45.52v67.71c0,9.22,3.17,12.96,8.36,12.96,4.61,0,8.07-1.73,11.81-4.32,1.15-.86,2.59,1.44,1.44,2.31-4.9,4.04-12.96,6.63-21.32,6.63-13.54,0-23.91-8.07-26.51-21.32h-1.15c-7.2,16.42-19.01,21.32-32.27,21.32-27.08,0-41.77-14.69-41.77-36.01s17.58-36.3,48.11-36.3Zm3.46,67.13c10.66,0,18.73-9.51,21.32-22.47v-37.45c-4.9-2.59-12.68-4.32-20.17-4.32-14.12,0-22.76,9.51-22.76,33.42,0,19.59,7.78,30.83,21.61,30.83Z"/><path d="m1750.02,307.94c-19.88,0-30.83-10.08-37.17-23.34l-.86.58c.58,6.05.86,8.93.86,13.54v2.88c0,2.31-.86,2.88-3.17,2.88h-44.37c-1.15,0-1.73-.29-1.73-1.44s.58-1.44,1.73-1.44h19.88V90.42h-17.57c-1.15,0-1.73-.29-1.73-1.44s.58-1.44,1.73-1.44h42.93c2.3,0,3.17.29,3.17,2.59v82.11c0,7.78-.58,23.62-1.15,29.39l.86.58c4.61-12.96,15.85-25.07,36.59-25.07,31.12,0,56.18,29.1,56.18,65.4s-25.07,65.4-56.18,65.4Zm11.53-118.13c-5.76-5.76-11.53-8.07-18.15-8.07-14.41,0-26.79,11.81-29.68,30.25v66.55c4.61,14.12,15.85,24.78,29.68,24.78,6.63,0,12.39-2.3,18.15-8.07,7.2-7.2,13.83-23.91,13.83-52.72s-6.63-45.52-13.83-52.73Z"/><path d="m1872.75,177.14c8.64,0,15.85,2.88,21.03,5.19,2.59,1.15,4.03,1.44,6.34,1.44,2.88,0,4.61-1.44,5.47-3.17.58-1.15.86-1.73,2.02-1.73s1.44.58,1.44,1.73v33.42c0,1.15-.58,1.73-1.73,1.73s-1.44-.58-1.44-1.73c0-19.88-13.54-34-33.13-34-12.68,0-21.03,8.64-21.03,21.61,0,10.08,6.05,17.86,28.81,23.62,29.1,7.49,39.47,20.74,39.47,41.49,0,23.05-19.59,41.2-46.39,41.2-19.02,0-26.22-8.93-34.29-8.93-5.47,0-6.91,2.31-7.78,5.48-.29,1.15-.86,1.73-2.02,1.73s-1.44-.58-1.44-1.73v-43.22c0-1.15.29-1.73,1.44-1.73s1.44.58,1.44,1.73c0,16.42,14.4,43.79,42.64,43.79,19.88,0,27.95-10.66,27.95-25.35,0-13.54-7.78-22.47-29.96-27.95-27.66-6.92-38.32-18.73-38.32-39.18s17.29-35.44,39.47-35.44Z"/></g><rect x="727.95" y="106.42" width="120.04" height="10.67"/></g></svg>